<?xml version="1.0" encoding="UTF-8"?>
<svg width="100" height="100" viewBox="0 0 100 100" xmlns="http://www.w3.org/2000/svg">
  <path fill="#D4AF37" fill-opacity="0.1" d="M50.4,20.6c-1.3,0.9-2.5,1.8-3.8,2.7c-0.3,0.2-0.6,0.4-0.8,0.7c-2.4,2.3-3.5,5.2-3.5,8.5c0,3.3,1.1,6.2,3.4,8.5 c2.3,2.3,5.1,3.5,8.4,3.5c3.3,0,6.1-1.2,8.4-3.5c2.3-2.3,3.4-5.2,3.4-8.5c0-3.3-1.1-6.2-3.4-8.5c-2.3-2.3-5.1-3.5-8.4-3.5 C52.8,19.9,51.6,20.1,50.4,20.6z M66.5,41.1c-0.6,1.2-1.3,2.3-2.2,3.2c-0.9,0.9-2,1.7-3.2,2.2c-1.2,0.5-2.5,0.8-3.9,0.8 c-1.4,0-2.7-0.3-3.9-0.8c-1.2-0.5-2.3-1.3-3.2-2.2c-0.9-0.9-1.7-2-2.2-3.2c-0.5-1.2-0.8-2.5-0.8-3.9c0-1.4,0.3-2.7,0.8-3.9 c0.5-1.2,1.3-2.3,2.2-3.2c0.9-0.9,2-1.7,3.2-2.2c1.2-0.5,2.5-0.8,3.9-0.8c1.4,0,2.7,0.3,3.9,0.8c1.2,0.5,2.3,1.3,3.2,2.2 c0.9,0.9,1.7,2,2.2,3.2c0.5,1.2,0.8,2.5,0.8,3.9C67.3,38.6,67,39.9,66.5,41.1z"/>
  <path fill="#D4AF37" fill-opacity="0.1" d="M50,10c-22.1,0-40,17.9-40,40s17.9,40,40,40s40-17.9,40-40S72.1,10,50,10z M50,80c-16.6,0-30-13.4-30-30 s13.4-30,30-30s30,13.4,30,30S66.6,80,50,80z"/>
</svg>